<svg id="Layer_1" enable-background="new 0 0 73 73" height="512" viewBox="0 0 73 73" width="512" xmlns="http://www.w3.org/2000/svg"><g id="Film_Distribution"><g><path d="m67.9564209 57.9047852h-6.72229c1.3397217-1.2797852 2.1695557-3.0898438 2.1695557-5.0893555 0-.0698242 0-.1499023-.0100098-.2202148h1.1098632c1.5300293 0 2.7700195-1.2397461 2.7700195-2.7700195 0-.1073914 0-15.5082054 0-15.3901367 0-1.0698242-.3999023-2.0996094-1.119873-2.8999023l-6.1101074-6.659668c-.8099365-.8798828-1.9599609-1.3901367-3.1599121-1.3901367h-7.7800293v-5.1298828c0-2.8999023-2.3599854-5.2602539-5.2600098-5.2602539h-34.5300293c-2.9099121 0-5.2700195 2.3603516-5.2700195 5.2602539v31.4697266c0 1.5302734 1.25 2.7700195 2.7700195 2.7700195h4.0200195c-.0100098.0703125-.0100098.1503906-.0100098.2202148 0 1.9995117.829834 3.8095703 2.1695557 5.0893555h-7.0367431c-.5522461 0-1 .4477539-1 1s.4477539 1 1 1h62c.5522461 0 1-.4477539 1-1s-.4477539-1.0000001-1-1.0000001zm-55.1328125-5.0893555c0-2.9051743 2.3722095-5.1000977 5.0900879-5.1000977 2.7429733 0 5.0898438 2.2231407 5.0898438 5.1000977 0 2.8085938-2.2773438 5.0864258-5.0849609 5.0893555h-.0097656c-2.8077394-.0029297-5.0852052-2.2807618-5.0852052-5.0893555zm-6.7800293-34.4599609c0-1.800293 1.4699707-3.2602539 3.2700195-3.2602539h34.5300293c1.8000488 0 3.2600098 1.4599609 3.2600098 3.2602539v6.1298828 21.2299804h-41.0600586zm59.2299805 16.0795898v2.5h-2.3199463c-.9100342 0-1.6500244.75-1.6500244 1.6601563v2.9199219c0 .9101563.7399902 1.6601563 1.6500244 1.6601563h2.3199463v2.5400391h-16.1699219v-20.2299806h7.7800293c.6398926 0 1.25.2700195 1.6799316.75l6.1101074 6.6499023c.3898926.4301758.5998536.9799805.5998536 1.5498047zm-3.8698731 18.3803711c0 2.8085938-2.2774658 5.0864258-5.0852051 5.0893555h-.0097656c-2.8077393-.0029297-5.085083-2.2807617-5.085083-5.0893555 0-2.9051933 2.3721581-5.1000977 5.0899658-5.1000977 2.7240372 0 5.0900879 2.2033615 5.0900879 5.1000977zm-36.4001465 0c0-.0698242 0-.1499023-.0098877-.2202148h24.2399902c-.0100098.0703125-.0100098.1503906-.0100098.2202148 0 1.9995117.8297119 3.8095703 2.1695557 5.0893555h-28.559082c1.3398438-1.2797852 2.1694336-3.0898438 2.1694336-5.0893555z"/><path d="m55.7735596 28.0351563h-2.619873c-.9100342 0-1.6600342.7402344-1.6600342 1.6499023v4.8603516c0 .9101563.75 1.6601563 1.6600342 1.6601563h7.0799561c1.4384308 0 2.1794548-1.7178955 1.2199707-2.7802734l-4.4599609-4.8598633c-.3100587-.3403321-.7600099-.5302735-1.2200929-.5302735z"/><path d="m17.9136963 55.4052734c1.4299316 0 2.5898438-1.159668 2.5898438-2.5898438 0-1.4457893-1.1663551-2.6000977-2.5898438-2.6000977-1.4229641 0-2.5900879 1.1536865-2.5900879 2.6000977 0 1.4301759 1.1600342 2.5898438 2.5900879 2.5898438z"/><path d="m56.3135986 50.215332c-1.4227486 0-2.5899658 1.1537781-2.5899658 2.6000977 0 1.4301758 1.1600342 2.5898438 2.5899658 2.5898438 1.4300537 0 2.5900879-1.159668 2.5900879-2.5898438 0-1.4578095-1.1794967-2.6000977-2.5900879-2.6000977z"/><path d="m38.0635986 30.3652344c0-4.1899414-2.1499023-7.8999023-5.4099121-10.0600586h5.5599365c.5499268 0 1-.449707 1-1 0-.5498047-.4500732-1-1-1h-12.2199707c-6.6500244 0-12.0600586 5.4101563-12.0600586 12.0600586 0 6.6601563 5.4100342 12.0698242 12.0600586 12.0698242 6.6600342 0 12.0699463-5.409668 12.0699463-12.0698242zm-6.5899658-3.8999024c1.0699463-.3500977 2.2299805.2402344 2.5699463 1.3100586.3500977 1.0698242-.2299805 2.2202148-1.3099365 2.5698242-1.0699463.3500977-2.2200928-.2397461-2.5699463-1.3100586-.3500977-1.0698242.2399902-2.2197265 1.3099365-2.5698242zm-2.9000244 7.4697266c.9100342-.659668 2.1899414-.4599609 2.8500977.4501953.6599121.9101563.4599609 2.1899414-.4500732 2.8500977s-2.1900635.4599609-2.8499756-.4501953c-.6600343-.909668-.459961-2.1899415.4499511-2.8500977zm-2.5700684-12.0097656c1.1201172 0 2.0400391.9199219 2.0400391 2.0400391 0 1.1298828-.9199219 2.0498047-2.0400391 2.0498047-1.1298828 0-2.0499268-.9199219-2.0499268-2.0498047.0000001-1.1201173.920044-2.0400391 2.0499268-2.0400391zm-6.7399902 8.4199218c-1.0699463-.3496094-1.6599121-1.5-1.3099365-2.5698242s1.5-1.6601563 2.5699463-1.3100586c1.0700684.3500977 1.6600342 1.5 1.3100586 2.5698242-.3499756 1.0703126-1.5 1.6601563-2.5700684 1.3100586zm4.6101074 6.4399415c-.6600342.9101563-1.9400635 1.1103516-2.8500977.4501953-.9099121-.6601563-1.1098633-1.9399414-.4499512-2.8500977.6600342-.9101563 1.9399414-1.1098633 2.8500977-.4501953.9099122.6601562 1.1198731 1.9404297.4499512 2.8500977zm.1799317-5.709961c-.3399658-1.0698242.2399902-2.2197266 1.3100586-2.5698242 1.0799561-.3500977 2.2299805.2402344 2.5799561 1.3100586s-.2399902 2.2299805-1.3099365 2.5698242c-1.0800782.3500977-2.2299806-.2299805-2.5800782-1.3100586z"/></g></g></svg>