<svg id="svg4593" height="512" viewBox="0 0 16.933333 16.933334" width="512" xmlns="http://www.w3.org/2000/svg" xmlns:svg="http://www.w3.org/2000/svg"><clipPath id="clipPath5337"><path id="rect5339" d="m34.774 274.321h35.435v25.702h-35.435z"/></clipPath><clipPath id="clipPath4542"><path id="rect4544" d="m-535.214-48.848h501.574v185.586h-501.574z"/></clipPath><g id="layer1" transform="translate(0 -280.067)"><path id="rect6040-55-7" d="m1.6851532 287.24753 13.5786088-4.3053c.211746-.0708.394174-.19515.286897-.55556l-.252582-.79668c-.237447-.74894-1.031565-1.16074-1.780525-.92329l-11.9981906 3.80397c-.74896332.23746-1.16074679 1.03159-.92329346 1.78053l.23209855.73206c.0963728.28637.30501711.43927.85698671.26427z" fill="#666" vector-effect="none"/><path id="path7765" d="m48.197266 10.474609-35.41211 11.425782c-1.043594-1.41755-2.538253-2.169939-4.1640622-2.390625-2.6525469-.285355-3.0802813 3.693085-.4277344 3.978515 1.7346121.416409 2.3443906 1.518446 2.7597656 2.199219l39.763672-12.607422c.41226-1.623179-1.219709-2.994167-2.519531-2.605469z" fill="#4d4d4d" transform="matrix(.265 0 0 .265 0 280.067)" font-variant-ligatures="normal" font-variant-position="normal" font-variant-caps="normal" font-variant-numeric="normal" font-variant-alternates="normal" font-feature-settings="normal" text-indent="0" text-align="start" text-decoration-line="none" text-decoration-style="solid" text-decoration-color="#000000" text-transform="none" text-orientation="mixed" white-space="normal" shape-padding="0" isolation="auto" mix-blend-mode="normal" solid-color="#000000" solid-opacity="1" vector-effect="none" paint-order="normal"/><path id="path7501" d="m.98249241 288.04311v7.01383c0 .7857.63252509 1.41823 1.41822769 1.41823h12.5867699c.785702 0 1.418228-.63253 1.418228-1.41823v-6.97875c0-.41016-.31787-.82314-.783813-.82314h-13.8504091c-.4012473 0-.78900349.19974-.78900349.78806z" fill="#55a1ff" vector-effect="none"/><path id="path7758" d="m14.570313 35.660156c-2.667968 0-2.667968 4.001953 0 4.001953h47.435546v-4.001953z" fill="#488bff" transform="matrix(.265 0 0 .265 0 280.067)" font-variant-ligatures="normal" font-variant-position="normal" font-variant-caps="normal" font-variant-numeric="normal" font-variant-alternates="normal" font-feature-settings="normal" text-indent="0" text-align="start" text-decoration-line="none" text-decoration-style="solid" text-decoration-color="#000000" text-transform="none" text-orientation="mixed" white-space="normal" shape-padding="0" isolation="auto" mix-blend-mode="normal" solid-color="#000000" solid-opacity="1" vector-effect="none" paint-order="normal"/><path id="path7683" d="m62.005859 36.42299-.0058-6.142578c0-1.743898-1.354865-3.111328-2.957066-3.111328h-52.3476805c-1.9839503 0-2.9824219 1.192836-2.9824219 2.978516v6.27539z" fill="#666" transform="matrix(.265 0 0 .265 0 280.067)" paint-order="normal"/><path id="path7515" d="m3.2038937 287.32248c.0000035.73861-.5987556 1.33737-1.3373636 1.33737s-1.33736717-.59876-1.33736364-1.33737c.00000199-.7386.59875954-1.33736 1.33736364-1.33736s1.3373616.59876 1.3373636 1.33736z" fill="#ffc861" paint-order="normal"/><g transform="matrix(.265 0 0 .265 0 280.067)"><path id="path7718" d="m22.394531 27.169922-6.269531 9.253906h12.982422l4.996094-9.253906z" fill="#d1dcff" paint-order="normal"/><path id="path7720" d="m21.923828 11.513672-12.3671874 3.921875 11.9570314 6.902344 11.222656-3.556641z" fill="#d1dcff" vector-effect="none"/><path id="path7728" d="m44.755859 27.169922-4.669921 9.253906h11.921874l4.56836-9.253906z" fill="#d1dcff" paint-order="normal"/><path id="path7730" d="m45.826172 3.9355469-12.417969 3.9375 10.628906 7.3242191 11.746094-3.722657z" fill="#d1dcff" vector-effect="none"/><path id="path7772" d="m29.400391 16.539062-11.501953 3.710938 3.615234 2.087891c3.740843-1.18568 7.481486-2.371993 11.222656-3.556641z" fill="#bfd2ff" font-variant-ligatures="normal" font-variant-position="normal" font-variant-caps="normal" font-variant-numeric="normal" font-variant-alternates="normal" font-feature-settings="normal" text-indent="0" text-align="start" text-decoration-line="none" text-decoration-style="solid" text-decoration-color="#000000" text-transform="none" text-orientation="mixed" white-space="normal" shape-padding="0" isolation="auto" mix-blend-mode="normal" solid-color="#000000" solid-opacity="1" vector-effect="none" paint-order="normal"/><path id="path7778" d="m48.197266 10.474609-7.501954 2.419922 3.341797 2.302735c2.226652-.705447 4.453312-1.410871 6.679688-2.117188.416607-1.491382-1.108993-3.015478-2.519531-2.605469z" fill="#bfd2ff" font-variant-ligatures="normal" font-variant-position="normal" font-variant-caps="normal" font-variant-numeric="normal" font-variant-alternates="normal" font-feature-settings="normal" text-indent="0" text-align="start" text-decoration-line="none" text-decoration-style="solid" text-decoration-color="#000000" text-transform="none" text-orientation="mixed" white-space="normal" shape-padding="0" isolation="auto" mix-blend-mode="normal" solid-color="#000000" solid-opacity="1" vector-effect="none" paint-order="normal"/><path id="path7738" d="m52.673828 1.015625c-.625516.0029475-1.260032.0981947-1.886719.296875-15.12159 4.7856498-30.239053 9.589963-45.3457028 14.380859-3.3423377 1.059704-5.20224955 4.644092-4.1425781 7.986329l.3378907 1.058593c-.4057118.810958-.64062246 1.719078-.64062505 2.683594-.00001595 3.332031 2.72851755 6.054687 6.06054685 6.054687 3.0783544 0 5.6304774-2.325523 6.0019534-5.30664h7.451172l-4.916016 7.253906h-11.7246094c-.6292242-.0077-1.1523437.588138-1.1523437 1.179688v20.050781c0 3.506268 2.849184 6.363281 6.3554687 6.363281h47.5761724c3.506282 0 6.355468-2.857013 6.355468-6.363281v-16.341797c.03026-1.363256-2.030259-1.363256-2 0v16.341797c0 2.432882-1.922587 4.363281-4.355468 4.363281h-47.5761724c-2.4328845 0-4.3554687-1.930399-4.3554687-4.363281v-19.230469c19.0974401.006 38.1835171 0 57.2890621 0 .553025-.000054 1.001025-.448929 1-1.001953l-.005859-6.140625c0-2.26182-1.785848-4.111328-3.957031-4.111328-15.348926-.0154-30.704547 0-46.066407 0-.005-.02375-.01225-.04667-.01758-.07031 15.688388-4.968038 31.612178-10.014841 45.048828-14.283203 1.493584-.400205 2.142399-1.770481 1.71875-3.3515622l-.951169-3.0117218c-.860961-2.7155976-3.390992-4.4502725-6.101563-4.4375zm.449219 2.0097656c1.692236.152403 3.188811 1.2959027 3.740234 3.0351563l.951172 2.9960937c.157212.6016544-.03209.7117786-.443359.8632813l-1.398438.4433591-8.005859-6.0605466 3.425781-1.0859375c.579776-.1838173 1.16639-.2422073 1.730469-.1914063zm-7.490235 2.0175782 8.003907 6.0605472-9.433594 2.992187-8.546875-5.8886718zm-12.392578 3.9296874 8.544922 5.8886718-8.892578 2.820313-8.689453-5.841797zm-11.474609 3.6406248 8.691406 5.841797-8.824219 2.796875-9.613281-5.548828zm-12.3261719 3.908203 9.6113279 5.548828-6.855469 2.173829c-1.069986-1.72031-2.9725028-2.875-5.1386714-2.875-1.4869439 0-2.8504853.545129-3.9082031 1.441406-.5636885-2.236461.6650545-4.505423 2.8964844-5.212891zm-2.3828125 6.84961c2.2511316 0 4.0527284 1.799657 4.0527344 4.050781.000011 2.251124-1.801585 4.052734-4.0527344 4.052734-2.2511493 0-4.0605576-1.80161-4.0605468-4.052734.000006-2.251124 1.8094152-4.050781 4.0605468-4.050781zm15.8691404 4.798828h9.5l-3.916015 7.253906h-10.5zm11.775391 0h8.429687l-3.660156 7.253906h-8.685547zm10.669922 0h9.595703l-3.580078 7.253906h-9.675781zm11.826172 0h1.845703c1.033221 0 1.957031.8854 1.957031 2.111328l.0059 5.142578h-7.388712zm-47.7402348 18.830078c-1.3636038-.03061-1.3636038 2.030615 0 2h27.6660158c1.363604.03061 1.363604-2.030615 0-2zm11.1601568 5.923828c-3.739703.0082-7.517435.0039-11.257813.0039-1.2275604.152953-1.1389783 1.960029.097656 1.992188h11.050781c1.373338.121279 1.487743-1.966593.109376-1.996094z" fill="#00003a" font-variant-ligatures="normal" font-variant-position="normal" font-variant-caps="normal" font-variant-numeric="normal" font-variant-alternates="normal" font-feature-settings="normal" text-indent="0" text-align="start" text-decoration-line="none" text-decoration-style="solid" text-decoration-color="#000000" text-transform="none" text-orientation="mixed" white-space="normal" shape-padding="0" isolation="auto" mix-blend-mode="normal" solid-color="#000000" solid-opacity="1" vector-effect="none"/></g></g></svg>