<svg id="Layer_1" enable-background="new 0 0 64 64" viewBox="0 0 64 64" xmlns="http://www.w3.org/2000/svg"><g><path d="m23.44 31.88c-.18 0-.37-.05-.53-.15-.29-.18-.47-.5-.47-.85v-11.69c0-.35.18-.67.47-.85s.66-.2.97-.04l11.69 5.84c.34.17.55.52.55.89s-.21.73-.55.89l-11.69 5.84c-.13.09-.28.12-.44.12zm1-11.07v8.45l8.45-4.23z"/></g><g><path d="m55.47 34.09c-.55 0-1-.44-1-.99v-.02c0-.55.45-1 1-1s1 .45 1 1-.45 1.01-1 1.01z"/></g><g><path d="m37.15 53.37h-34.39c-.55 0-1-.45-1-1v-45.43c0-.55.45-1 1-1h52.71c.55 0 1 .45 1 1v12.97c0 .55-.45 1-1 1s-1-.45-1-1v-11.97h-50.71v43.44h33.39c.55 0 1 .45 1 1s-.44.99-1 .99z"/></g><g><path d="m55.47 53.37h-13.65c-.55 0-1-.45-1-1s.45-1 1-1h12.64v-11.31c0-.55.45-1 1-1s1 .45 1 1v12.31c.01.56-.44 1-.99 1z"/></g><g><g><path d="m10.68 15.98h-4.46c-.55 0-1-.45-1-1v-4.47c0-.55.45-1 1-1h4.47c.55 0 1 .45 1 1v4.47c-.01.56-.45 1-1.01 1zm-3.46-2h2.47v-2.47h-2.47z"/></g><g><path d="m10.68 24.18h-4.46c-.55 0-1-.45-1-1v-4.47c0-.55.45-1 1-1h4.47c.55 0 1 .45 1 1v4.47c-.01.55-.45 1-1.01 1zm-3.46-2h2.47v-2.47h-2.47z"/></g><g><path d="m10.68 32.37h-4.46c-.55 0-1-.45-1-1v-4.47c0-.55.45-1 1-1h4.47c.55 0 1 .45 1 1v4.47c-.01.55-.45 1-1.01 1zm-3.46-2h2.47v-2.47h-2.47z"/></g><g><path d="m10.68 40.56h-4.46c-.55 0-1-.45-1-1v-4.47c0-.55.45-1 1-1h4.47c.55 0 1 .45 1 1v4.47c-.01.55-.45 1-1.01 1zm-3.46-2h2.47v-2.47h-2.47z"/></g></g><g><g><path d="m52.02 15.98h-4.47c-.55 0-1-.45-1-1v-4.47c0-.55.45-1 1-1h4.47c.55 0 1 .45 1 1v4.47c0 .56-.45 1-1 1zm-3.47-2h2.47v-2.47h-2.47z"/></g><g><path d="m50.48 24.18h-2.94c-.55 0-1-.45-1-1v-4.47c0-.55.45-1 1-1h4.47c.55 0 1 .45 1 1v3.76c0 .55-.45 1-1 1-.2 0-.39-.06-.54-.16-.06.49-.48.87-.99.87zm-1.93-2h1.94c.2 0 .38.06.54.16v-2.63h-2.47v2.47z"/></g></g><g><g><path d="m35.52 42.57c-1.22 0-2.41-.33-3.48-.98-1.54-.93-2.63-2.41-3.06-4.17-.43-1.75-.15-3.56.78-5.1.94-1.54 2.41-2.63 4.16-3.06l2.1-.52c.25-.06.53-.02.76.12s.39.36.45.62l2.74 11.17c.13.54-.2 1.08-.73 1.21l-2.1.52c-.54.13-1.08.19-1.62.19zm0-11.64-1.13.28c-1.23.3-2.27 1.07-2.93 2.15s-.85 2.36-.55 3.59 1.07 2.27 2.15 2.93 2.36.85 3.59.55l1.13-.28z"/></g><g><path d="m39 41.89c-.46 0-.86-.31-.97-.76l-2.74-11.16c-.11-.47.12-.95.55-1.15l16.52-7.6c.27-.12.58-.12.85.01s.47.37.54.66l4.39 17.85c.07.29.01.6-.17.84s-.45.39-.75.4l-18.16.91c-.03 0-.04 0-.06 0zm-1.57-11.6 2.35 9.56 16.13-.81-3.81-15.5z"/></g><g><path d="m40.08 58.06c-.59 0-1.17-.16-1.68-.47-.75-.45-1.27-1.17-1.48-2.01l-3.41-13.86c-.13-.54.2-1.08.73-1.21.54-.13 1.08.2 1.21.73l3.41 13.86c.08.33.29.61.57.78.29.17.63.23.96.15s.61-.28.78-.57.23-.63.15-.96l-3.27-13.3c-.13-.54.2-1.08.73-1.21s1.08.2 1.21.73l3.27 13.3c.21.85.07 1.72-.38 2.47s-1.17 1.27-2.01 1.48c-.27.06-.53.09-.79.09z"/></g><g><path d="m58.86 42.25c-.4 0-.79-.06-1.15-.19-.75-.27-1.27-.82-1.44-1.5l-4.55-18.52c-.17-.68.04-1.41.58-2 .45-.49 1.09-.86 1.81-1.03.72-.18 1.46-.15 2.08.08.74.27 1.27.82 1.43 1.5l4.55 18.52c.32 1.29-.73 2.63-2.38 3.03-.31.07-.62.11-.93.11zm-3.8-21.38c-.15 0-.31.02-.46.06-.62.15-.92.52-.93.63l4.55 18.51c.06.08.49.27 1.11.12.61-.15.91-.52.92-.63l-4.55-18.5c-.01-.02-.06-.07-.18-.11-.14-.05-.3-.08-.46-.08z"/></g></g><g><path d="m31.17 40.56h-17.18c-.55 0-1-.45-1-1v-29.04c0-.55.45-1 1-1h30.59c.55 0 1 .45 1 1v15.38c0 .55-.45 1-1 1s-1-.45-1-1v-14.38h-28.59v27.04h16.18c.55 0 1 .45 1 1s-.44 1-1 1z"/></g><g><path d="m55.47 47.22h-15.16c-.55 0-1-.45-1-1s.45-1 1-1h15.16c.55 0 1 .45 1 1s-.45 1-1 1z"/></g><g><path d="m35.64 47.22h-32.88c-.55 0-1-.45-1-1s.45-1 1-1h32.88c.55 0 1 .45 1 1s-.45 1-1 1z"/></g></svg>